<svg id="Layer_2" data-name="Layer 2" xmlns="http://www.w3.org/2000/svg" xmlns:xlink="http://www.w3.org/1999/xlink" width="183" height="124.651" viewBox="0 0 183 124.651">
  <defs>
    <clipPath id="clip-path">
      <path id="Path_8" data-name="Path 8" d="M148.42,0V53.335a12.135,12.135,0,0,1-12.061,12.107h0a12.146,12.146,0,0,1-12.107-12.107V0H108.982V28.666a26.99,26.99,0,0,0-12.773-3.155V41.653a11.857,11.857,0,1,1,0,23.715V81.489a27.579,27.579,0,0,0,20.3-8.9A27.292,27.292,0,0,0,136.358,81.2h0a27.341,27.341,0,0,0,19.927-8.693,27.625,27.625,0,0,0,20.386,8.984,27.959,27.959,0,0,0,27.667-25.21H188.113a11.886,11.886,0,1,1-.291-6.534h16.39A27.959,27.959,0,0,0,176.672,25.5,27.435,27.435,0,0,0,163.7,28.746V0ZM96.209,25.5h0a28,28,0,0,0,0,56h0V65.376h0a11.857,11.857,0,1,1,0-23.715V25.5Z" transform="translate(-68.42)" fill="#b9e5fb"/>
    </clipPath>
  </defs>
  <g id="Layer_1" data-name="Layer 1">
    <path id="Path_5" data-name="Path 5" d="M155.305,9.61V63.2a12.144,12.144,0,0,1-12.023,12.188h0A12.127,12.127,0,0,1,131.343,63.2V9.61H116.2V38.4a27.134,27.134,0,0,0-12.65-3.155V51.459a11.921,11.921,0,0,1,0,23.835V91.52a27.085,27.085,0,0,0,20.1-8.942,26.857,26.857,0,0,0,19.629,8.651h0a26.931,26.931,0,0,0,19.8-8.735A27.278,27.278,0,0,0,183.3,91.52c14.228,0,26-11.147,27.418-25.336H194.623A11.645,11.645,0,0,1,171.615,63.4a11.648,11.648,0,0,1,22.756-3.786h16.236c-1.83-13.73-13.393-24.379-27.292-24.379a26.843,26.843,0,0,0-12.854,3.284V9.61ZM103.55,35.24h0c-15.143,0-27.54,12.647-27.54,28.164s12.4,28.122,27.54,28.122h0V75.294h0a11.921,11.921,0,0,1,0-23.835h0Z" transform="translate(-49.367 -6.241)" fill="#00aeef"/>
    <path id="Path_6" data-name="Path 6" d="M148.42,0V53.335a12.135,12.135,0,0,1-12.061,12.107h0a12.146,12.146,0,0,1-12.107-12.107V0H108.982V28.666a26.99,26.99,0,0,0-12.773-3.155V41.653a11.857,11.857,0,1,1,0,23.715V81.489a27.579,27.579,0,0,0,20.3-8.9A27.292,27.292,0,0,0,136.358,81.2h0a27.341,27.341,0,0,0,19.927-8.693,27.625,27.625,0,0,0,20.386,8.984,27.959,27.959,0,0,0,27.667-25.21H188.113a11.886,11.886,0,1,1-.291-6.534h16.39A27.959,27.959,0,0,0,176.672,25.5,27.435,27.435,0,0,0,163.7,28.746V0ZM96.209,25.5h0a28,28,0,0,0,0,56h0V65.376h0a11.857,11.857,0,1,1,0-23.715V25.5Z" transform="translate(-44.437)" fill="#b9e5fb"/>
    <g id="Group_8" data-name="Group 8" transform="translate(23.983)" clip-path="url(#clip-path)">
      <path id="Path_7" data-name="Path 7" d="M199.643,104.8l-30.622,17.141L139.858,125.1H127.877l-43.184.708L59.729,111.085,56.9,138.457l10.943,16.976,32.532,7.82,49.508-1.788,37.485-4.245,24.754-18.43Z" transform="translate(-60.938 -68.065)" fill="#6dcff6"/>
    </g>
    <text id="Diyar_United_Company" data-name="Diyar United Company" transform="translate(0 103.969)" fill="#231f20" font-size="17" font-family="Arial" font-weight="700"><tspan x="0" y="0">Diyar United Company</tspan></text>
    <text id="PARTNERS_IN_TECHNOLOGY" data-name="PARTNERS IN TECHNOLOGY" transform="translate(0.329 122.651)" fill="#231f20" font-size="11" font-family="Arial" letter-spacing="0.03em"><tspan x="0" y="0">P</tspan><tspan y="0" letter-spacing="0.1em">A</tspan><tspan y="0" letter-spacing="0.08em">R</tspan><tspan y="0" letter-spacing="0.1em">TNERS IN TECHNOLOG</tspan><tspan y="0" letter-spacing="0.08em">Y</tspan></text>
  </g>
</svg>
