<svg xmlns="http://www.w3.org/2000/svg" width="18.822" height="20.756" viewBox="0 0 18.822 20.756">
  <path id="Icon_simple-email" data-name="Icon simple-email" d="M20.479,9.58a10.7,10.7,0,0,1-.345,2.322,6.719,6.719,0,0,1-.9,2.039,4.763,4.763,0,0,1-1.53,1.449,4.319,4.319,0,0,1-2.235.551,3.24,3.24,0,0,1-1.616-.4,2.768,2.768,0,0,1-1.092-1.119A3.461,3.461,0,0,1,9.829,15.9a2.978,2.978,0,0,1-2.556-1.375,4.5,4.5,0,0,1-.636-1.593,6.869,6.869,0,0,1-.083-2.078,9.652,9.652,0,0,1,.633-2.545,6.917,6.917,0,0,1,1.17-1.949A4.949,4.949,0,0,1,9.965,5.114a4.488,4.488,0,0,1,1.956-.434,6.082,6.082,0,0,1,1.17.1A4.789,4.789,0,0,1,14,5.052a4.91,4.91,0,0,1,.752.4c.23.148.46.3.69.457l-.568,6.537a2.173,2.173,0,0,0,.017.765,1.071,1.071,0,0,0,.233.472.84.84,0,0,0,.379.246,1.406,1.406,0,0,0,1.331-.262,2.836,2.836,0,0,0,.713-.908,5.847,5.847,0,0,0,.48-1.364,9.362,9.362,0,0,0,.21-1.7,10.858,10.858,0,0,0-.267-3.175,6.311,6.311,0,0,0-1.175-2.457,5.457,5.457,0,0,0-2.106-1.582,7.645,7.645,0,0,0-3.069-.562,6.776,6.776,0,0,0-3.035.661A6.964,6.964,0,0,0,6.278,4.412a8.8,8.8,0,0,0-1.51,2.759,12.432,12.432,0,0,0-.636,3.437,11.429,11.429,0,0,0,.324,3.507,6.334,6.334,0,0,0,1.281,2.514,5.348,5.348,0,0,0,2.171,1.51,8.328,8.328,0,0,0,3,.5,10.262,10.262,0,0,0,1.966-.211c.324-.065.632-.143.925-.228a6.96,6.96,0,0,0,.8-.285L15,19.764a4.564,4.564,0,0,1-.891.441,8.577,8.577,0,0,1-1.053.3,10.276,10.276,0,0,1-2.2.246,11.536,11.536,0,0,1-4.01-.646,7.381,7.381,0,0,1-2.923-1.922,8.073,8.073,0,0,1-1.755-3.174,13.538,13.538,0,0,1-.49-4.406A13.437,13.437,0,0,1,2.524,6.38,10.464,10.464,0,0,1,4.555,3.021,9.255,9.255,0,0,1,7.654.8,9.7,9.7,0,0,1,11.667,0a10.128,10.128,0,0,1,3.888.7,7.563,7.563,0,0,1,2.807,1.958,8.037,8.037,0,0,1,1.665,3.026A11.57,11.57,0,0,1,20.479,9.58ZM9.34,10.851a4.412,4.412,0,0,0,.228,2.188,1.173,1.173,0,0,0,1.128.739,1.246,1.246,0,0,0,.387-.071,1.378,1.378,0,0,0,.445-.267,2.374,2.374,0,0,0,.451-.545,4.18,4.18,0,0,0,.415-.921l.444-5.079a2.65,2.65,0,0,0-.69-.091A2.386,2.386,0,0,0,11,7.067a2.272,2.272,0,0,0-.813.773,4.54,4.54,0,0,0-.54,1.271,10.782,10.782,0,0,0-.306,1.738Z" transform="translate(-1.67)" fill="#1d2c49" opacity="0.5"/>
</svg>
