<svg xmlns="http://www.w3.org/2000/svg" width="13.049" height="22.99" viewBox="0 0 13.049 22.99">
  <path id="facebook_1_" data-name="facebook (1)" d="M8.56,22.99H4.878a1.116,1.116,0,0,1-1.115-1.115v-8.3H1.615A1.117,1.117,0,0,1,.5,12.455V8.9A1.116,1.116,0,0,1,1.615,7.782H3.763V6a6.067,6.067,0,0,1,1.6-4.347A5.778,5.778,0,0,1,9.628,0l2.808,0a1.117,1.117,0,0,1,1.113,1.115v3.3a1.116,1.116,0,0,1-1.115,1.115h-1.89c-.577,0-.723.116-.755.151-.052.059-.113.225-.113.684V7.781h2.616a1.133,1.133,0,0,1,.552.14,1.119,1.119,0,0,1,.574.975v3.558A1.116,1.116,0,0,1,12.3,13.57H9.675v8.3A1.117,1.117,0,0,1,8.56,22.99ZM5.111,21.642H8.328V12.967a.745.745,0,0,1,.745-.745h3V9.129h-3a.745.745,0,0,1-.744-.745V6.374A2.3,2.3,0,0,1,8.778,4.8a2.284,2.284,0,0,1,1.765-.607H12.2V1.352l-2.574,0C6.842,1.347,5.111,3.13,5.111,6V8.385a.745.745,0,0,1-.744.745H1.848v3.093H4.367a.745.745,0,0,1,.744.745Zm7.322-20.29h0Zm0,0" transform="translate(-0.5 0)" fill="#3764b9"/>
</svg>
