<svg xmlns="http://www.w3.org/2000/svg" width="25.704" height="25.704" viewBox="0 0 25.704 25.704">
  <g id="Group_4966" data-name="Group 4966" transform="translate(0.75 0.75)">
    <g id="_x31_0.Linkedin" transform="translate(0 0)">
      <path id="Path_126" data-name="Path 126" d="M53.942,51.85V42.985c0-4.357-.938-7.685-6.021-7.685a5.253,5.253,0,0,0-4.75,2.6h-.061V35.693H38.3V51.85h5.022V43.832c0-2.118.393-4.145,3-4.145,2.572,0,2.6,2.39,2.6,4.266V51.82h5.022Z" transform="translate(-29.738 -27.645)" fill="none" stroke="#0077b5" stroke-width="1.5"/>
      <path id="Path_127" data-name="Path 127" d="M11.3,36.6h5.022V52.756H11.3Z" transform="translate(-10.907 -28.552)" fill="none" stroke="#0077b5" stroke-width="1.5"/>
      <path id="Path_128" data-name="Path 128" d="M12.9,10a2.92,2.92,0,1,0,2.9,2.9A2.905,2.905,0,0,0,12.9,10Z" transform="translate(-10 -10)" fill="none" stroke="#0077b5" stroke-width="1.5"/>
    </g>
  </g>
</svg>
