<svg xmlns="http://www.w3.org/2000/svg" width="17.467" height="22.926" viewBox="0 0 17.467 22.926">
  <path id="Icon_material-lock-outline" data-name="Icon material-lock-outline" d="M14.734,18.967a2.183,2.183,0,1,0-2.183-2.183A2.19,2.19,0,0,0,14.734,18.967Zm6.55-9.825H20.192V6.959a5.459,5.459,0,1,0-10.917,0V9.142H8.183A2.19,2.19,0,0,0,6,11.325V22.242a2.19,2.19,0,0,0,2.183,2.183h13.1a2.19,2.19,0,0,0,2.183-2.183V11.325A2.19,2.19,0,0,0,21.284,9.142ZM11.349,6.959a3.384,3.384,0,1,1,6.769,0V9.142H11.349Zm9.935,15.284H8.183V11.325h13.1Z" transform="translate(-6 -1.5)" fill="#1d2c49" opacity="0.5"/>
</svg>
