<svg xmlns="http://www.w3.org/2000/svg" width="70" height="70" viewBox="0 0 70 70">
  <g id="Group_5087" data-name="Group 5087" transform="translate(-150 -189)">
    <circle id="Ellipse_28" data-name="Ellipse 28" cx="28.186" cy="28.186" r="28.186" transform="translate(156.814 195.814)" fill="#1d2c49"/>
    <g id="login_2_" data-name="login (2)" transform="translate(171.424 210.774)">
      <g id="Group_5086" data-name="Group 5086" transform="translate(0)">
        <g id="Group_5085" data-name="Group 5085">
          <path id="Path_1602" data-name="Path 1602" d="M6.788,24.364H3.133a1.049,1.049,0,0,1-.826-.393,1.079,1.079,0,0,1-.219-.9,11.406,11.406,0,0,1,10.863-9.032c.087,0,.175.005.263.005s.177,0,.265-.006a11.307,11.307,0,0,1,3.729.718,1.032,1.032,0,1,0,.726-1.933q-.256-.1-.516-.181a7.02,7.02,0,1,0-8.4,0,13.425,13.425,0,0,0-8.948,10,3.136,3.136,0,0,0,3.066,3.782H6.788a1.032,1.032,0,1,0,0-2.065ZM8.259,7.02a4.955,4.955,0,1,1,5.2,4.949l-.241,0-.242,0A4.962,4.962,0,0,1,8.259,7.02Z" transform="translate(0)" fill="#fff"/>
          <path id="Path_1603" data-name="Path 1603" d="M164.1,314.632A2.782,2.782,0,0,0,161.563,313h-3.226a2.733,2.733,0,0,0-2.582,1.745c-.054.141-.121.319-.19.526h-6.759a1.032,1.032,0,0,0-.741.313l-1.773,1.827a1.032,1.032,0,0,0,0,1.443l1.807,1.838a1.032,1.032,0,0,0,.736.309h3.355a1.032,1.032,0,1,0,0-2.065h-2.922l-.8-.81.767-.79h7.1a1.032,1.032,0,0,0,1-.787,8.536,8.536,0,0,1,.34-1.063.677.677,0,0,1,.658-.421h3.221a.7.7,0,0,1,.656.409,6.667,6.667,0,0,1,.611,2.632,6.864,6.864,0,0,1-.606,2.679.7.7,0,0,1-.648.423h-3.26a.735.735,0,0,1-.666-.457,6.862,6.862,0,0,1-.32-1.022,1.032,1.032,0,1,0-2.008.481,8.885,8.885,0,0,0,.419,1.329,2.785,2.785,0,0,0,2.572,1.735h3.265a2.768,2.768,0,0,0,2.539-1.662,8.936,8.936,0,0,0,.778-3.509A8.74,8.74,0,0,0,164.1,314.632Z" transform="translate(-138.463 -296.843)" fill="#fff"/>
          <circle id="Ellipse_27" data-name="Ellipse 27" cx="1.11" cy="1.11" r="1.11" transform="translate(21.352 19.872)" fill="#fff"/>
        </g>
      </g>
    </g>
    <g id="Ellipse_29" data-name="Ellipse 29" transform="translate(150 189)" fill="none" stroke="#d9ddde" stroke-width="2">
      <circle cx="35" cy="35" r="35" stroke="none"/>
      <circle cx="35" cy="35" r="34" fill="none"/>
    </g>
  </g>
</svg>
