<svg id="help" xmlns="http://www.w3.org/2000/svg" width="24.2" height="24.2" viewBox="0 0 24.2 24.2">
  <g id="Group_4939" data-name="Group 4939">
    <g id="Group_4938" data-name="Group 4938">
      <path id="Path_315" data-name="Path 315" d="M222.919,343.22a1.269,1.269,0,0,0,0,2.537,1.269,1.269,0,0,0,0-2.537Z" transform="translate(-211.19 -326.997)" fill="#00aeef"/>
      <path id="Path_316" data-name="Path 316" d="M187.268,140c-2.224,0-3.246,1.318-3.246,2.208a.945.945,0,0,0,.989.939c.89,0,.527-1.269,2.208-1.269.824,0,1.483.362,1.483,1.12,0,.89-.923,1.4-1.466,1.862a3.016,3.016,0,0,0-1.1,2.5c0,.857.231,1.1.906,1.1.807,0,.972-.362.972-.675a2.069,2.069,0,0,1,.923-2.059,4.217,4.217,0,0,0,1.845-3.015C190.777,141.172,189.377,140,187.268,140Z" transform="translate(-175.324 -133.385)" fill="#00aeef"/>
      <path id="Path_317" data-name="Path 317" d="M12.1,0A12.094,12.094,0,0,0,0,12.1V23.255a.945.945,0,0,0,.945.945H12.1A12.1,12.1,0,0,0,12.1,0Zm0,22.31H1.891V12.1A10.209,10.209,0,1,1,12.1,22.31Z" fill="#00aeef"/>
    </g>
  </g>
</svg>
