<svg xmlns="http://www.w3.org/2000/svg" width="18.641" height="21.407" viewBox="0 0 18.641 21.407">
  <path id="logout_1_" data-name="logout (1)" d="M46.89,20.4a1,1,0,0,1-1,1h-9.46a3.349,3.349,0,0,1-3.345-3.345V3.345A3.349,3.349,0,0,1,36.427,0h9.46a1,1,0,0,1,0,2.007h-9.46a1.339,1.339,0,0,0-1.338,1.338V18.062A1.339,1.339,0,0,0,36.427,19.4h9.46A1,1,0,0,1,46.89,20.4Zm4.539-10.41L46.66,5.225a1,1,0,1,0-1.419,1.419L48.3,9.7H40.4a1,1,0,1,0,0,2.007h7.9l-3.056,3.056a1,1,0,0,0,1.419,1.419l4.769-4.769A1,1,0,0,0,51.429,9.994Z" transform="translate(-33.082)" fill="#00aeef"/>
</svg>
