<svg xmlns="http://www.w3.org/2000/svg" width="20.496" height="20.5" viewBox="0 0 20.496 20.5">
  <path id="user-edit" d="M10.009,10.75A4.25,4.25,0,1,0,5.759,6.5,4.25,4.25,0,0,0,10.009,10.75Zm0-7A2.75,2.75,0,1,1,7.259,6.5a2.75,2.75,0,0,1,2.75-2.75ZM3.75,18.02c0,1.563.673,2.23,2.25,2.23h4a.75.75,0,0,1,0,1.5H6c-2.418,0-3.75-1.325-3.75-3.73,0-2.662,1.506-5.77,5.75-5.77h4a6.456,6.456,0,0,1,2.264.368.75.75,0,0,1-.528,1.4A4.955,4.955,0,0,0,12,13.75H8a3.959,3.959,0,0,0-4.25,4.27Zm18.487-4.144-1.114-1.113a1.747,1.747,0,0,0-2.475,0l-6.177,6.206a.745.745,0,0,0-.219.529V22a.75.75,0,0,0,.75.75h2.5a.753.753,0,0,0,.529-.218l6.2-6.178a1.748,1.748,0,0,0,0-2.478ZM15.19,21.25H13.75V19.81l4.122-4.141,1.459,1.459Zm5.986-5.959-.782.779-1.463-1.464.779-.783a.247.247,0,0,1,.176-.073.252.252,0,0,1,.177.073l1.114,1.114a.244.244,0,0,1,.073.176.25.25,0,0,1-.074.178Z" transform="translate(-2.25 -2.25)" fill="#00aeef"/>
</svg>
