<svg id="_07_contact" data-name="07 contact" xmlns="http://www.w3.org/2000/svg" width="19.036" height="20.5" viewBox="0 0 19.036 20.5">
  <path id="Path_310" data-name="Path 310" d="M20.571,2H5.929A1.464,1.464,0,0,0,4.464,3.464V4.929H3.732a.732.732,0,0,0,0,1.464h.732v5.125H3.732a.732.732,0,1,0,0,1.464h.732v5.125H3.732a.732.732,0,0,0,0,1.464h.732v1.464A1.464,1.464,0,0,0,5.929,22.5H20.571a1.464,1.464,0,0,0,1.464-1.464V3.464A1.464,1.464,0,0,0,20.571,2ZM5.929,21.036V19.571h.732a.732.732,0,0,0,0-1.464H5.929V12.982h.732a.732.732,0,1,0,0-1.464H5.929V6.393h.732a.732.732,0,1,0,0-1.464H5.929V3.464H20.571V21.036Zm7.321-9.152a2.929,2.929,0,1,0-2.929-2.929A2.929,2.929,0,0,0,13.25,11.884Zm0-4.393a1.464,1.464,0,1,1-1.464,1.464A1.464,1.464,0,0,1,13.25,7.491Zm2.2,5.125H11.054a2.2,2.2,0,0,0-2.2,2.2v2.2a1.464,1.464,0,0,0,1.464,1.464h5.857a1.464,1.464,0,0,0,1.464-1.464v-2.2A2.2,2.2,0,0,0,15.446,12.616Zm.732,4.393H10.321v-2.2a.732.732,0,0,1,.732-.732h4.393a.732.732,0,0,1,.732.732Z" transform="translate(-3 -2)" fill="#00aeef"/>
</svg>
