<svg xmlns="http://www.w3.org/2000/svg" width="26.644" height="28.693" viewBox="0 0 26.644 28.693">
  <g id="Group_4988" data-name="Group 4988" transform="translate(-256 -16.257)">
    <g id="_07_contact" data-name="07 contact" transform="translate(253 14.257)" opacity="0.33">
      <path id="Path_310" data-name="Path 310" d="M27.594,2H7.1A2.05,2.05,0,0,0,5.05,4.05V6.1H4.025a1.025,1.025,0,0,0,0,2.05H5.05v7.173H4.025a1.025,1.025,0,1,0,0,2.05H5.05v7.173H4.025a1.025,1.025,0,0,0,0,2.05H5.05v2.05a2.05,2.05,0,0,0,2.05,2.05h20.5a2.05,2.05,0,0,0,2.05-2.05V4.05A2.05,2.05,0,0,0,27.594,2ZM7.1,28.644v-2.05H8.124a1.025,1.025,0,0,0,0-2.05H7.1V17.371H8.124a1.025,1.025,0,1,0,0-2.05H7.1V8.149H8.124a1.025,1.025,0,0,0,0-2.05H7.1V4.05h20.5V28.644Zm10.248-12.81a4.1,4.1,0,1,0-4.1-4.1A4.1,4.1,0,0,0,17.347,15.834Zm0-6.149a2.05,2.05,0,1,1-2.05,2.05A2.05,2.05,0,0,1,17.347,9.686Zm3.074,7.173H14.272A3.074,3.074,0,0,0,11.2,19.933v3.074a2.05,2.05,0,0,0,2.05,2.05h8.2a2.05,2.05,0,0,0,2.05-2.05V19.933A3.074,3.074,0,0,0,20.421,16.859Zm1.025,6.149h-8.2V19.933a1.025,1.025,0,0,1,1.025-1.025h6.149a1.025,1.025,0,0,1,1.025,1.025Z"/>
    </g>
  </g>
</svg>
