<svg xmlns="http://www.w3.org/2000/svg" width="23.514" height="19.16" viewBox="0 0 23.514 19.16">
  <path id="Icon_awesome-twitter" data-name="Icon awesome-twitter" d="M18.856,7.635c.013.187.013.373.013.56A12.171,12.171,0,0,1,6.614,20.45,12.172,12.172,0,0,1,0,18.517a8.91,8.91,0,0,0,1.04.053,8.626,8.626,0,0,0,5.348-1.84A4.315,4.315,0,0,1,2.36,13.742a5.432,5.432,0,0,0,.813.067,4.556,4.556,0,0,0,1.134-.147A4.308,4.308,0,0,1,.853,9.435V9.382A4.338,4.338,0,0,0,2.8,9.928,4.314,4.314,0,0,1,1.467,4.168a12.244,12.244,0,0,0,8.881,4.507,4.862,4.862,0,0,1-.107-.987A4.311,4.311,0,0,1,17.7,4.741,8.48,8.48,0,0,0,20.43,3.7a4.3,4.3,0,0,1-1.894,2.374,8.635,8.635,0,0,0,2.48-.667,9.259,9.259,0,0,1-2.16,2.227Z" transform="translate(0.406 -2.04)" fill="none" stroke="#00aeef" stroke-width="1.5"/>
</svg>
